<svg width="364" height="405" viewBox="0 0 364 405" fill="none" xmlns="http://www.w3.org/2000/svg">
<path d="M283.111 189.172V229.706C283.111 234.296 281.356 238.711 278.206 242.041L231.045 285.226C228.254 287.782 226.663 291.397 226.663 295.188V295.259C226.663 299.099 228.295 302.757 231.149 305.316L276.633 346.1C279.493 348.665 281.129 352.332 281.129 356.181V391.478C281.129 398.946 275.092 405 267.644 405H96.088C88.6402 405 82.6031 398.946 82.6031 391.478V356.181C82.6031 352.332 84.2388 348.666 87.0996 346.1L132.583 305.316C135.437 302.757 137.069 299.099 137.069 295.259V295.188C137.069 291.397 135.479 287.782 132.688 285.226L85.5266 242.041C82.3764 238.711 80.8889 234.296 80.8889 229.706V123.021C80.8889 120.961 83.2283 119.779 84.8791 121.005L110.999 140.403C113.223 142.055 114.535 144.665 114.535 147.44V216.771C114.535 221.235 116.195 225.538 119.191 228.839L158.082 265.946C164.872 272.424 168.716 281.412 168.716 290.81V298.948C168.716 308.803 164.528 318.192 157.202 324.76L115.849 361.841C114.831 362.753 114.249 364.057 114.249 365.427V368.455C114.249 371.112 116.397 373.265 119.046 373.265H244.687C247.336 373.265 249.483 371.111 249.483 368.455V365.427C249.483 364.057 248.901 362.754 247.883 361.841L206.531 324.76C199.204 318.191 195.017 308.803 195.017 298.948V290.809C195.017 281.411 198.86 272.424 205.65 265.945L244.541 228.838C247.537 225.537 249.197 221.234 249.197 216.771V147.44C249.197 144.665 250.509 142.054 252.733 140.403L278.962 120.923C280.678 119.647 283.111 120.877 283.111 123.019V189.171V189.172Z" fill="#8AAFF2"/>
<path d="M66.8881 6.46218V25.4042C66.8881 28.9737 63.9839 31.8664 60.4022 31.8664H33.3319C32.5871 31.8664 31.9832 32.4681 31.9832 33.2103V88.9751C31.9832 90.2766 32.6399 91.4912 33.7316 92.2078L62.3693 110.997L64.8441 112.876C66.1328 113.854 66.8889 115.376 66.8889 116.99V145.948C66.8889 149.24 63.2335 151.228 60.4543 149.448L6.0902 114.622C2.24018 111.546 0 106.894 0 101.977V22.8913L0.0937112 22.8546V12.1974C0.0937112 5.46069 5.57441 0 12.3358 0H60.403C63.9855 0 66.8889 2.89354 66.8889 6.46218H66.8881Z" fill="#8AAFF2"/>
<path d="M175.935 260.233L131.754 217.579C129.998 215.884 129.02 213.534 129.052 211.088L130.37 110.226C130.434 105.297 126.474 101.267 121.565 101.267H89.6954C84.8316 101.267 80.8889 97.3071 80.8889 92.4226V8.84394C80.8889 3.9594 84.8316 0 89.6954 0L274.305 0C279.168 0 283.111 3.9594 283.111 8.84394V92.282C283.111 97.1666 279.168 101.126 274.305 101.126H245.376C240.557 101.126 236.634 105.015 236.57 109.854L235.244 211.414C235.213 213.79 234.231 216.053 232.519 217.695L188.118 260.256C184.706 263.527 179.334 263.516 175.935 260.233ZM162.689 202.787L178.892 218.431C180.683 220.161 183.513 220.165 185.31 218.443L201.909 202.532C202.811 201.667 203.328 200.475 203.345 199.223L204.987 73.5309C205.02 70.9818 207.087 68.933 209.626 68.933H246.416C248.978 68.933 251.055 66.8469 251.055 64.274V36.852C251.055 34.2791 248.978 32.193 246.416 32.193H117.587C115.024 32.193 112.947 34.2791 112.947 36.852V64.4145C112.947 66.9874 115.024 69.0735 117.587 69.0735H158.268C160.854 69.0735 162.94 71.197 162.907 73.7937L161.266 199.368C161.249 200.657 161.764 201.895 162.689 202.787Z" fill="#B6202D"/>
<path d="M297.111 6.46218V25.4042C297.111 28.9737 300.015 31.8664 303.597 31.8664H304.926H330.668C331.413 31.8664 332.017 32.4681 332.017 33.2103V41.2908V59.2058V66.3255V80.2522V88.9751C332.017 90.2766 331.36 91.4912 330.268 92.2078L301.631 110.997L299.156 112.876C297.867 113.854 297.111 115.376 297.111 116.99V145.948C297.111 149.24 300.766 151.228 303.546 149.448L357.91 114.622C361.76 111.546 364 106.894 364 101.977V59.2058V41.2908V22.8906L363.906 22.8538V12.1966C363.906 5.4607 358.426 0 351.664 0L303.597 0C300.014 0 297.111 2.89354 297.111 6.46218Z" fill="#8AAFF2"/>
</svg>
